<svg xmlns="http://www.w3.org/2000/svg" version="1.1" xmlns:xlink="http://www.w3.org/1999/xlink" xmlns:svgjs="http://svgjs.dev/svgjs" width="1000" height="1000" viewBox="0 0 1000 1000"><rect width="1000" height="1000" fill="#263457"></rect><g transform="matrix(0.7,0,0,0.7,149.57576301272735,400.220484425347)"><svg viewBox="0 0 396 113" data-background-color="#263457" preserveAspectRatio="xMidYMid meet" height="285" width="1000" xmlns="http://www.w3.org/2000/svg" xmlns:xlink="http://www.w3.org/1999/xlink"><g id="tight-bounds" transform="matrix(1,0,0,1,0.24000307577148305,0.016718094916228665)"><svg viewBox="0 0 395.52 112.9665491469327" height="112.9665491469327" width="395.52"><g><svg viewBox="0 0 553.8942056860714 158.2006396865818" height="112.9665491469327" width="395.52"><g transform="matrix(1,0,0,1,158.37420568607135,2.7854912438785675)"><svg viewBox="0 0 395.52 152.62965719882467" height="152.62965719882467" width="395.52"><g id="textblocktransform"><svg viewBox="0 0 395.52 152.62965719882467" height="152.62965719882467" width="395.52" id="textblock"><g><svg viewBox="0 0 395.52 152.62965719882467" height="152.62965719882467" width="395.52"><g transform="matrix(1,0,0,1,0,0)"><svg width="395.52" viewBox="73.1500015258789 -35.69999694824219 204.20001220703125 75.80000305175781" height="152.62965719882467" data-palette-color="#ffffff"><svg></svg><svg></svg><g class="wordmark-text-0" data-fill-palette-color="primary" id="text-0"><path xmlns="http://www.w3.org/2000/svg" d="M87.9 0.7c-2.833 0-5.583-0.35-8.25-1.05-2.667-0.7-4.833-1.633-6.5-2.8v0l3.25-7.3c1.567 1.033 3.383 1.867 5.45 2.5 2.067 0.633 4.1 0.95 6.1 0.95v0c3.8 0 5.7-0.95 5.7-2.85v0c0-1-0.54-1.743-1.62-2.23-1.087-0.48-2.83-0.987-5.23-1.52v0c-2.633-0.567-4.833-1.177-6.6-1.83-1.767-0.647-3.283-1.687-4.55-3.12-1.267-1.433-1.9-3.367-1.9-5.8v0c0-2.133 0.583-4.06 1.75-5.78 1.167-1.713 2.91-3.07 5.23-4.07 2.313-1 5.153-1.5 8.52-1.5v0c2.3 0 4.567 0.257 6.8 0.77 2.233 0.52 4.2 1.28 5.9 2.28v0l-3.05 7.35c-3.333-1.8-6.567-2.7-9.7-2.7v0c-1.967 0-3.4 0.29-4.3 0.87-0.9 0.587-1.35 1.347-1.35 2.28v0c0 0.933 0.533 1.633 1.6 2.1 1.067 0.467 2.783 0.95 5.15 1.45v0c2.667 0.567 4.877 1.173 6.63 1.82 1.747 0.653 3.263 1.687 4.55 3.1 1.28 1.42 1.92 3.347 1.92 5.78v0c0 2.1-0.583 4-1.75 5.7-1.167 1.7-2.917 3.057-5.25 4.07-2.333 1.02-5.167 1.53-8.5 1.53zM131.35-35h9.9v35h-9.9v-13.65h-13.5v13.65h-9.9v-35h9.9v13.15h13.5zM174.45 0l-2.75-6.8h-14.8l-2.75 6.8h-10.1l15.45-35h9.75l15.5 35zM159.8-14.1h9l-4.5-11.2zM231.05-35h9.45l-11.35 35h-10.6l-6.7-21.3-7 21.3h-10.6l-11.35-35h10.2l7.05 22.35 7.4-22.35h9.1l7.05 22.55zM267.65-35h9.7v35h-8.15l-15.45-18.65v18.65h-9.7v-35h8.15l15.45 18.65z" fill="#ffffff" fill-rule="nonzero" stroke="none" stroke-width="1" stroke-linecap="butt" stroke-linejoin="miter" stroke-miterlimit="10" stroke-dasharray="" stroke-dashoffset="0" font-family="none" font-weight="none" font-size="none" text-anchor="none" style="mix-blend-mode: normal" data-fill-palette-color="primary" opacity="1"></path><path xmlns="http://www.w3.org/2000/svg" d="M98.05 39.4v-27.15h-10.75v-7.85h31.35v7.85h-10.7v27.15zM134.55 40.1c-2.833 0-5.583-0.35-8.25-1.05-2.667-0.7-4.833-1.633-6.5-2.8v0l3.25-7.3c1.567 1.033 3.383 1.867 5.45 2.5 2.067 0.633 4.1 0.95 6.1 0.95v0c3.8 0 5.7-0.95 5.7-2.85v0c0-1-0.54-1.743-1.62-2.23-1.087-0.48-2.83-0.987-5.23-1.52v0c-2.633-0.567-4.833-1.177-6.6-1.83-1.767-0.647-3.283-1.687-4.55-3.12-1.267-1.433-1.9-3.367-1.9-5.8v0c0-2.133 0.583-4.06 1.75-5.78 1.167-1.713 2.907-3.07 5.22-4.07 2.32-1 5.163-1.5 8.53-1.5v0c2.3 0 4.567 0.257 6.8 0.77 2.233 0.52 4.2 1.28 5.9 2.28v0l-3.05 7.35c-3.333-1.8-6.567-2.7-9.7-2.7v0c-1.967 0-3.4 0.29-4.3 0.87-0.9 0.587-1.35 1.347-1.35 2.28v0c0 0.933 0.533 1.633 1.6 2.1 1.067 0.467 2.783 0.95 5.15 1.45v0c2.667 0.567 4.877 1.173 6.63 1.82 1.747 0.653 3.26 1.687 4.54 3.1 1.287 1.42 1.93 3.347 1.93 5.78v0c0 2.1-0.583 4-1.75 5.7-1.167 1.7-2.917 3.057-5.25 4.07-2.333 1.02-5.167 1.53-8.5 1.53zM164.4 31.75h18.3v7.65h-28.1v-35h27.45v7.65h-17.65v5.9h15.55v7.4h-15.55zM211.8 4.4h9.7v35h-8.15l-15.45-18.65v18.65h-9.7v-35h8.15l15.45 18.65zM251.95 30.75v-9.6h8.75v14.5c-2 1.433-4.3 2.533-6.9 3.3-2.6 0.767-5.2 1.15-7.8 1.15v0c-3.667 0-6.967-0.777-9.9-2.33-2.933-1.547-5.233-3.703-6.9-6.47-1.667-2.767-2.5-5.9-2.5-9.4v0c0-3.5 0.833-6.633 2.5-9.4 1.667-2.767 3.983-4.927 6.95-6.48 2.967-1.547 6.317-2.32 10.05-2.32v0c3.267 0 6.2 0.55 8.8 1.65 2.6 1.1 4.767 2.683 6.5 4.75v0l-6.3 5.7c-2.367-2.6-5.2-3.9-8.5-3.9v0c-3 0-5.417 0.907-7.25 2.72-1.833 1.82-2.75 4.247-2.75 7.28v0c0 1.933 0.417 3.657 1.25 5.17 0.833 1.52 2 2.703 3.5 3.55 1.5 0.853 3.217 1.28 5.15 1.28v0c1.9 0 3.683-0.383 5.35-1.15z" fill="#ebd4c0" fill-rule="nonzero" stroke="none" stroke-width="1" stroke-linecap="butt" stroke-linejoin="miter" stroke-miterlimit="10" stroke-dasharray="" stroke-dashoffset="0" font-family="none" font-weight="none" font-size="none" text-anchor="none" style="mix-blend-mode: normal" data-fill-palette-color="secondary" opacity="1"></path></g></svg></g></svg></g></svg></g></svg></g><g><svg viewBox="0 0 141.7298904337305 158.2006396865818" height="158.2006396865818" width="141.7298904337305"><g><svg xmlns="http://www.w3.org/2000/svg" xmlns:xlink="http://www.w3.org/1999/xlink" version="1.1" x="0" y="0" viewBox="10.618182182312012 8.078999519348145 43.758697509765625 48.843994140625" enable-background="new 7.5 7.5 50 50" xml:space="preserve" height="158.2006396865818" width="141.7298904337305" class="icon-icon-0" data-fill-palette-color="accent" id="icon-0"><path d="M54.169 24.292C53.964 20.635 50.95 9.898 40.165 8.589c-2.185-0.265-4.517-0.51-6.767-0.51-6.475 0-10.934 2.104-14.909 7.037-4.512 5.597-3.354 10.369-2.589 13.526 0.29 1.192 0.539 2.222 0.289 2.723-1.054 2.108-4.642 7.231-4.684 7.29-0.853 1.263-1.083 2.182-0.723 2.892 0.547 1.079 2.261 1.146 3.918 1.209 1.139 0.045 2.43 0.095 2.81 0.494 0.8 0.842 0.894 3.489 0.962 5.423 0.048 1.354 0.086 2.423 0.305 3.035 0.133 0.373 0.49 0.816 1.437 0.816 0.627 0 1.401-0.175 2.297-0.377 1.395-0.314 3.11-0.644 4.203-0.372 0.479 0.12 0.832 0.379 1.078 0.792 0.793 1.335 0.193 3.707 0.188 3.73-0.039 0.15-0.006 0.31 0.089 0.432 0.094 0.122 0.24 0.194 0.395 0.194H49.03c0.156 0 0.301-0.082 0.395-0.206 0.095-0.124 0.123-0.294 0.082-0.444-0.005-0.02-0.13-0.497-0.13-2.648 0-0.576-0.08-1.139-0.165-1.733-0.281-1.98-0.632-4.444 1.667-9.582 0.509-1.136 0.956-2.056 1.345-2.857C54.195 35.392 54.725 34.301 54.169 24.292zM47.617 33.504h-4.166c-0.101 0-0.188-0.037-0.268-0.088-0.016-0.01-0.029-0.018-0.043-0.029-0.073-0.06-0.128-0.136-0.158-0.227-0.002-0.006-0.009-0.009-0.011-0.016l-3.229-11.041-5.314 16.138c-0.001 0.002-0.001 0.003-0.002 0.005l-0.001 0.004c-0.001 0.002-0.002 0.002-0.003 0.004-0.029 0.087-0.088 0.159-0.161 0.22-0.016 0.012-0.027 0.024-0.044 0.035-0.013 0.008-0.021 0.021-0.035 0.028-0.074 0.038-0.153 0.057-0.231 0.057-0.052 0-0.104-0.008-0.156-0.025-0.022-0.008-0.039-0.023-0.061-0.034s-0.041-0.021-0.063-0.035c-0.063-0.044-0.117-0.098-0.154-0.164-0.003-0.004-0.008-0.006-0.01-0.01L28.196 28.16l-2.704 5.08c-0.006 0.013-0.02 0.017-0.027 0.028-0.035 0.056-0.079 0.102-0.133 0.139-0.018 0.013-0.033 0.025-0.053 0.035-0.069 0.037-0.145 0.063-0.229 0.063h-3.934c-0.276 0-0.5-0.224-0.5-0.5s0.224-0.5 0.5-0.5h3.633l3.008-5.651c0.008-0.015 0.021-0.024 0.031-0.038 0.019-0.028 0.039-0.053 0.063-0.077s0.05-0.045 0.079-0.063c0.014-0.009 0.022-0.022 0.037-0.03 0.014-0.007 0.029-0.007 0.043-0.013 0.032-0.013 0.063-0.021 0.097-0.028 0.031-0.006 0.062-0.01 0.093-0.01 0.032 0 0.062 0.004 0.094 0.01 0.033 0.007 0.064 0.016 0.095 0.029 0.014 0.006 0.03 0.005 0.044 0.013 0.015 0.008 0.024 0.021 0.038 0.031 0.028 0.019 0.053 0.04 0.077 0.064s0.044 0.049 0.063 0.077c0.009 0.014 0.023 0.023 0.031 0.038l5.203 9.958 5.45-16.55c0.005-0.014 0.016-0.023 0.021-0.037 0.014-0.033 0.031-0.063 0.052-0.092 0.018-0.025 0.035-0.048 0.057-0.068 0.023-0.023 0.049-0.042 0.077-0.06 0.028-0.019 0.056-0.034 0.088-0.046 0.014-0.005 0.024-0.016 0.039-0.021 0.017-0.005 0.032-0.001 0.049-0.004 0.033-0.006 0.065-0.009 0.1-0.009 0.036 0 0.069 0.005 0.104 0.013 0.015 0.003 0.029 0 0.044 0.005 0.014 0.004 0.022 0.015 0.036 0.021 0.034 0.014 0.063 0.032 0.094 0.053 0.025 0.018 0.048 0.036 0.068 0.058 0.021 0.022 0.04 0.047 0.058 0.073 0.02 0.03 0.035 0.06 0.048 0.093 0.005 0.014 0.016 0.023 0.02 0.038l3.574 12.223h3.792c0.276 0 0.5 0.224 0.5 0.5S47.894 33.504 47.617 33.504z" fill="#f6f6f6" data-fill-palette-color="accent"></path></svg></g></svg></g></svg></g><defs></defs></svg><rect width="395.52" height="112.9665491469327" fill="none" stroke="none" visibility="hidden"></rect></g></svg></g></svg>